<svg width="18" height="19" viewBox="0 0 18 19" fill="none" xmlns="http://www.w3.org/2000/svg">
<path d="M13.605 16.7151C12.945 16.9101 12.165 17.0001 11.25 17.0001H6.75C5.835 17.0001 5.055 16.9101 4.395 16.7151C4.56 14.7651 6.5625 13.2275 9 13.2275C11.4375 13.2275 13.44 14.7651 13.605 16.7151Z" stroke="#6C7278" stroke-width="1.5" stroke-linecap="round" stroke-linejoin="round"/>
<path d="M11.25 2H6.75C3 2 1.5 3.5 1.5 7.25V11.75C1.5 14.585 2.355 16.1375 4.395 16.715C4.56 14.765 6.5625 13.2275 9 13.2275C11.4375 13.2275 13.44 14.765 13.605 16.715C15.645 16.1375 16.5 14.585 16.5 11.75V7.25C16.5 3.5 15 2 11.25 2ZM9 11.1275C7.515 11.1275 6.315 9.92001 6.315 8.43501C6.315 6.95001 7.515 5.75 9 5.75C10.485 5.75 11.685 6.95001 11.685 8.43501C11.685 9.92001 10.485 11.1275 9 11.1275Z" stroke="#6C7278" stroke-width="1.5" stroke-linecap="round" stroke-linejoin="round"/>
<path d="M11.685 8.43501C11.685 9.92001 10.485 11.1275 9 11.1275C7.515 11.1275 6.315 9.92001 6.315 8.43501C6.315 6.95001 7.515 5.75 9 5.75C10.485 5.75 11.685 6.95001 11.685 8.43501Z" stroke="#6C7278" stroke-width="1.5" stroke-linecap="round" stroke-linejoin="round"/>
</svg>
