<svg width="24" height="24" viewBox="0 0 24 24" fill="none" xmlns="http://www.w3.org/2000/svg">
<path d="M23.2346 4.45312H6.70618V13.5494H23.2346V4.45312Z" fill="#8BBE4D"/>
<path d="M23.2351 4.45312H14.9462V13.5494H23.2351V4.45312Z" fill="#5A9449"/>
<path d="M14.9707 12.1773C16.7246 12.1773 18.1465 10.7555 18.1465 9.00151C18.1465 7.24755 16.7246 5.82568 14.9707 5.82568C13.2167 5.82568 11.7949 7.24755 11.7949 9.00151C11.7949 10.7555 13.2167 12.1773 14.9707 12.1773Z" fill="#528443"/>
<path d="M24 13.5496V4.45343C24 4.03095 23.6576 3.68848 23.2351 3.68848H6.70648C6.284 3.68848 5.94153 4.03095 5.94153 4.45343V13.5496C5.94153 13.9721 6.284 14.3145 6.70648 14.3145H23.2351C23.6576 14.3146 24 13.9721 24 13.5496ZM7.47143 10.4672V7.53588C8.61068 7.25407 9.50707 6.35768 9.78889 5.21843H20.1526C20.4344 6.35768 21.3308 7.25407 22.4701 7.53588V10.4672C21.3308 10.749 20.4344 11.6454 20.1526 12.7846H9.78889C9.50707 11.6454 8.61064 10.749 7.47143 10.4672Z" fill="#528443"/>
<path d="M23.235 3.68848H14.9707V5.21843H20.1526C20.4344 6.35768 21.3308 7.25407 22.47 7.53588V10.4672C21.3308 10.749 20.4344 11.6454 20.1526 12.7846H14.9707V14.3146H23.235C23.6575 14.3146 24 13.9721 24 13.5496V4.45348C24 4.03099 23.6575 3.68848 23.235 3.68848Z" fill="#366626"/>
<path d="M14.9708 5.82568V12.1773C16.7247 12.1773 18.1466 10.7555 18.1466 9.00151C18.1465 7.24754 16.7246 5.82568 14.9708 5.82568Z" fill="#366626"/>
<path d="M20.3219 7.46533H3.79352V16.5616H20.3219V7.46533Z" fill="#8BBE4D"/>
<path d="M20.2385 7.54932H11.9495V16.6456H20.2385V7.54932Z" fill="#5A9449"/>
<path d="M11.974 15.273C13.7279 15.273 15.1498 13.8512 15.1498 12.0972C15.1498 10.3433 13.7279 8.92139 11.974 8.92139C10.22 8.92139 8.79816 10.3433 8.79816 12.0972C8.79816 13.8512 10.22 15.273 11.974 15.273Z" fill="#528443"/>
<path d="M21.0031 16.6453V7.54913C21.0031 7.12665 20.6607 6.78418 20.2382 6.78418H3.70959C3.28711 6.78418 2.94464 7.12665 2.94464 7.54913V16.6453C2.94464 17.0678 3.28711 17.4102 3.70959 17.4102H20.2382C20.6607 17.4103 21.0031 17.0678 21.0031 16.6453ZM4.47459 13.5628V10.6315C5.61384 10.3497 6.51023 9.45334 6.79205 8.31409H17.1558C17.4376 9.45334 18.334 10.3497 19.4732 10.6315V13.5628C18.334 13.8446 17.4376 14.741 17.1558 15.8803H6.79205C6.51019 14.7411 5.6138 13.8447 4.47459 13.5628Z" fill="#528443"/>
<path d="M20.2382 6.78418H11.9739V8.31413H17.1558C17.4376 9.45338 18.334 10.3498 19.4732 10.6316V13.5629C18.334 13.8447 17.4376 14.7411 17.1558 15.8803H11.9739V17.4103H20.2382C20.6607 17.4103 21.0031 17.0678 21.0031 16.6453V7.54913C21.0031 7.12665 20.6607 6.78418 20.2382 6.78418Z" fill="#366626"/>
<path d="M11.9739 8.92139V15.273C13.7278 15.273 15.1497 13.8512 15.1497 12.0972C15.1497 10.3432 13.7278 8.92139 11.9739 8.92139Z" fill="#366626"/>
<path d="M17.3771 10.3667H0.848694V19.463H17.3771V10.3667Z" fill="#8BBE4D"/>
<path d="M17.2935 10.4507H9.00452V19.547H17.2935V10.4507Z" fill="#5A9449"/>
<path d="M9.02904 18.1744C10.783 18.1744 12.2049 16.7525 12.2049 14.9986C12.2049 13.2446 10.783 11.8228 9.02904 11.8228C7.27508 11.8228 5.85321 13.2446 5.85321 14.9986C5.85321 16.7525 7.27508 18.1744 9.02904 18.1744Z" fill="#528443"/>
<path d="M18.0586 19.5466V10.4505C18.0586 10.028 17.7161 9.68555 17.2936 9.68555H0.764953C0.342469 9.6855 0 10.028 0 10.4505V19.5466C0 19.9691 0.342469 20.3116 0.764953 20.3116H17.2935C17.716 20.3116 18.0586 19.9691 18.0586 19.5466ZM1.52995 16.4642V13.5329C2.6692 13.2511 3.56559 12.3547 3.84741 11.2155H14.2111C14.493 12.3547 15.3893 13.2511 16.5286 13.5329V16.4642C15.3893 16.746 14.493 17.6424 14.2111 18.7816H3.84745C3.56559 17.6424 2.66916 16.746 1.52995 16.4642Z" fill="#528443"/>
<path d="M17.2935 9.68555H9.02924V11.2155H14.2111C14.4929 12.3547 15.3893 13.2511 16.5286 13.533V16.4642C15.3893 16.746 14.4929 17.6424 14.2111 18.7817H9.02924V20.3116H17.2935C17.716 20.3116 18.0585 19.9692 18.0585 19.5467V10.4505C18.0586 10.0281 17.716 9.68555 17.2935 9.68555Z" fill="#366626"/>
<path d="M9.02924 11.8228V18.1744C10.7832 18.1744 12.2051 16.7526 12.2051 14.9986C12.2051 13.2446 10.7832 11.8228 9.02924 11.8228Z" fill="#366626"/>
</svg>
