<svg width="17" height="16" viewBox="0 0 17 16" fill="none" xmlns="http://www.w3.org/2000/svg">
<path d="M6.28125 9.55356C6.28125 10.4136 6.94125 11.1069 7.76125 11.1069H9.43458C10.1479 11.1069 10.7279 10.5002 10.7279 9.75356C10.7279 8.94022 10.3746 8.65355 9.84792 8.46689L7.16125 7.53356C6.63458 7.34689 6.28125 7.06022 6.28125 6.24689C6.28125 5.50022 6.86125 4.89355 7.57458 4.89355H9.24792C10.0679 4.89355 10.7279 5.58689 10.7279 6.44689" stroke="#1A1C1E" stroke-width="1.5" stroke-linecap="round" stroke-linejoin="round"/>
<path d="M8.5 4V12" stroke="#1A1C1E" stroke-width="1.5" stroke-linecap="round" stroke-linejoin="round"/>
<path d="M8.50016 14.6663C12.1821 14.6663 15.1668 11.6816 15.1668 7.99967C15.1668 4.31778 12.1821 1.33301 8.50016 1.33301C4.81826 1.33301 1.8335 4.31778 1.8335 7.99967C1.8335 11.6816 4.81826 14.6663 8.50016 14.6663Z" stroke="#1A1C1E" stroke-width="1.5" stroke-linecap="round" stroke-linejoin="round"/>
</svg>
