<svg width="35" height="34" viewBox="0 0 35 34" fill="none" xmlns="http://www.w3.org/2000/svg">
<path d="M31.4492 20.258L30.8825 27.3413C30.67 29.5088 30.5 31.1663 26.6608 31.1663H8.83916C4.99999 31.1663 4.82999 29.5088 4.61749 27.3413L4.05083 20.258C3.93749 19.0822 4.30583 17.9913 4.97166 17.1555C4.98583 17.1413 4.98583 17.1413 4.99999 17.1272C5.77916 16.178 6.95499 15.583 8.27249 15.583H27.2275C28.545 15.583 29.7067 16.178 30.4717 17.0988C30.4858 17.113 30.5 17.1272 30.5 17.1413C31.1942 17.9772 31.5767 19.068 31.4492 20.258Z" stroke="#EA7E41" stroke-width="2" stroke-miterlimit="10"/>
<path d="M5.70825 16.1926V8.89681C5.70825 4.08014 6.91242 2.87598 11.7291 2.87598H13.5283C15.3274 2.87598 15.7383 3.41431 16.4183 4.32098L18.2174 6.72931C18.6708 7.32431 18.9399 7.69264 20.1441 7.69264H23.7566C28.5733 7.69264 29.7774 8.89681 29.7774 13.7135V16.2493" stroke="#EA7E41" stroke-width="2" stroke-miterlimit="10" stroke-linecap="round" stroke-linejoin="round"/>
<path d="M14.1091 24.083H21.3908" stroke="#EA7E41" stroke-width="2" stroke-miterlimit="10" stroke-linecap="round" stroke-linejoin="round"/>
</svg>
