<svg width="25" height="25" viewBox="0 0 25 25" fill="none" xmlns="http://www.w3.org/2000/svg">
<path d="M23.8264 12.5C23.8264 16.3694 20.6958 19.5 16.8264 19.5C15.1931 19.5 13.6959 18.9361 12.5097 18.0028C14.1431 16.7194 15.1736 14.7361 15.1736 12.5C15.1736 10.2639 14.1236 8.28055 12.5097 6.99722C13.6959 6.06389 15.1931 5.5 16.8264 5.5C20.6958 5.5 23.8264 8.64999 23.8264 12.5Z" fill="#F79E1B"/>
<path d="M12.5097 6.99722C12.5097 6.99722 12.5097 6.99722 12.5097 6.99722C14.1236 8.28055 15.1736 10.2639 15.1736 12.5C15.1736 14.7361 14.1431 16.7194 12.5097 18.0028L12.4902 18.0028C10.8764 16.7389 9.8264 14.7361 9.8264 12.5C9.8264 10.2639 10.8764 8.28059 12.4903 6.99726C12.4903 6.99725 12.4903 6.99728 12.4903 6.99726L12.5097 6.99722Z" fill="#FF5F00"/>
<path d="M9.8264 12.5C9.8264 10.2639 10.8764 8.28059 12.4903 6.99726C11.3042 6.06393 9.80696 5.50003 8.17363 5.50003C4.30419 5.50003 1.17365 8.63058 1.17365 12.5C1.17365 16.3695 4.30419 19.5 8.17363 19.5C9.80696 19.5 11.3041 18.9361 12.4902 18.0028C10.8764 16.7389 9.8264 14.7361 9.8264 12.5Z" fill="#EB001B"/>
</svg>
