<svg width="18" height="19" viewBox="0 0 18 19" fill="none" xmlns="http://www.w3.org/2000/svg">
<path d="M9.015 2.68262C6.5325 2.68262 4.515 4.70012 4.515 7.18262V9.35012C4.515 9.80762 4.32 10.5051 4.0875 10.8951L3.225 12.3276C2.6925 13.2126 3.06 14.1951 4.035 14.5251C7.2675 15.6051 10.755 15.6051 13.9875 14.5251C14.895 14.2251 15.2925 13.1526 14.7975 12.3276L13.935 10.8951C13.71 10.5051 13.515 9.80762 13.515 9.35012V7.18262C13.515 4.70762 11.49 2.68262 9.015 2.68262Z" stroke="#6C7278" stroke-width="1.5" stroke-miterlimit="10" stroke-linecap="round"/>
<path d="M10.4025 2.90008C10.17 2.83258 9.93 2.78008 9.6825 2.75008C8.9625 2.66008 8.2725 2.71258 7.6275 2.90008C7.845 2.34508 8.385 1.95508 9.015 1.95508C9.645 1.95508 10.185 2.34508 10.4025 2.90008Z" stroke="#6C7278" stroke-width="1.5" stroke-miterlimit="10" stroke-linecap="round" stroke-linejoin="round"/>
<path d="M11.265 14.7949C11.265 16.0324 10.2525 17.0449 9.015 17.0449C8.4 17.0449 7.83 16.7899 7.425 16.3849C7.02 15.9799 6.765 15.4099 6.765 14.7949" stroke="#6C7278" stroke-width="1.5" stroke-miterlimit="10"/>
</svg>
