<svg width="18" height="19" viewBox="0 0 18 19" fill="none" xmlns="http://www.w3.org/2000/svg">
<path d="M13.5 5.87C13.455 5.8625 13.4025 5.8625 13.3575 5.87C12.3225 5.8325 11.4975 4.985 11.4975 3.935C11.4975 2.8625 12.36 2 13.4325 2C14.505 2 15.3675 2.87 15.3675 3.935C15.36 4.985 14.535 5.8325 13.5 5.87Z" stroke="#6C7278" stroke-width="1.5" stroke-linecap="round" stroke-linejoin="round"/>
<path d="M12.7275 11.3301C13.755 11.5026 14.8875 11.3226 15.6825 10.7901C16.74 10.0851 16.74 8.93012 15.6825 8.22512C14.88 7.69262 13.7325 7.51262 12.705 7.69262" stroke="#6C7278" stroke-width="1.5" stroke-linecap="round" stroke-linejoin="round"/>
<path d="M4.4775 5.87C4.5225 5.8625 4.575 5.8625 4.62 5.87C5.655 5.8325 6.48 4.985 6.48 3.935C6.48 2.8625 5.6175 2 4.545 2C3.4725 2 2.61 2.87 2.61 3.935C2.6175 4.985 3.4425 5.8325 4.4775 5.87Z" stroke="#6C7278" stroke-width="1.5" stroke-linecap="round" stroke-linejoin="round"/>
<path d="M5.25 11.3301C4.2225 11.5026 3.09 11.3226 2.295 10.7901C1.2375 10.0851 1.2375 8.93012 2.295 8.22512C3.0975 7.69262 4.245 7.51262 5.2725 7.69262" stroke="#6C7278" stroke-width="1.5" stroke-linecap="round" stroke-linejoin="round"/>
<path d="M9 11.4725C8.955 11.465 8.9025 11.465 8.8575 11.4725C7.8225 11.435 6.9975 10.5875 6.9975 9.53754C6.9975 8.46504 7.86 7.60254 8.9325 7.60254C10.005 7.60254 10.8675 8.47254 10.8675 9.53754C10.86 10.5875 10.035 11.4425 9 11.4725Z" stroke="#6C7278" stroke-width="1.5" stroke-linecap="round" stroke-linejoin="round"/>
<path d="M6.8175 13.8355C5.76 14.5405 5.76 15.6955 6.8175 16.4005C8.0175 17.203 9.9825 17.203 11.1825 16.4005C12.24 15.6955 12.24 14.5405 11.1825 13.8355C9.99 13.0405 8.0175 13.0405 6.8175 13.8355Z" stroke="#6C7278" stroke-width="1.5" stroke-linecap="round" stroke-linejoin="round"/>
</svg>
