<svg width="18" height="18" viewBox="0 0 18 18" fill="none" xmlns="http://www.w3.org/2000/svg">
<path d="M7.42001 3.99521H7.42V3.9975V5.4225C7.42 6.15613 7.22745 6.6342 6.93082 6.93082C6.6342 7.22745 6.15613 7.42 5.4225 7.42H3.9975C3.26387 7.42 2.7858 7.22745 2.48918 6.93082C2.19255 6.6342 2 6.15613 2 5.4225V3.9975C2 3.26387 2.19254 2.78609 2.48972 2.48957C2.78709 2.19287 3.26703 2 4.005 2H5.43C6.16381 2 6.6415 2.19263 6.93699 2.48878C7.23228 2.78473 7.42337 3.262 7.42001 3.99521Z" fill="#EF8421" stroke="#EA7E41"/>
<path d="M12.5775 2H14.0025C14.7361 2 15.2142 2.19255 15.5108 2.48918C15.8075 2.7858 16 3.26387 16 3.9975V5.4225C16 6.15613 15.8075 6.6342 15.5108 6.93082C15.2142 7.22745 14.7361 7.42 14.0025 7.42H12.5775C11.8439 7.42 11.3658 7.22745 11.0692 6.93082C10.7726 6.63419 10.58 6.15613 10.58 5.4225V3.9975C10.58 3.26387 10.7726 2.7858 11.0692 2.48918C11.3658 2.19255 11.8439 2 12.5775 2Z" fill="#EF8421" stroke="#EA7E41"/>
<path d="M12.5775 10.5723H14.0025C14.7361 10.5723 15.2142 10.7648 15.5108 11.0614C15.8075 11.3581 16 11.8361 16 12.5698V13.9948C16 14.7284 15.8075 15.2065 15.5108 15.5031C15.2142 15.7997 14.7361 15.9923 14.0025 15.9923H12.5775C11.8439 15.9923 11.3658 15.7997 11.0692 15.5031C10.7726 15.2065 10.58 14.7284 10.58 13.9948V12.5698C10.58 11.8361 10.7726 11.3581 11.0692 11.0614C11.3658 10.7648 11.8439 10.5723 12.5775 10.5723Z" fill="#EF8421" stroke="#EA7E41"/>
<path d="M7.42001 12.575H7.42V12.5773V14.0023C7.42 14.7359 7.22745 15.214 6.93082 15.5106C6.6342 15.8072 6.15613 15.9998 5.4225 15.9998H3.9975C3.26387 15.9998 2.78609 15.8072 2.48957 15.51C2.19287 15.2127 2 14.7327 2 13.9948V12.5698C2 11.8361 2.19254 11.3584 2.48972 11.0618C2.78709 10.7651 3.26703 10.5723 4.005 10.5723H5.43C6.16381 10.5723 6.64121 10.7649 6.9366 11.0616C7.23196 11.3583 7.42337 11.8374 7.42001 12.575Z" fill="#EF8421" stroke="#EA7E41"/>
</svg>
