<svg width="17" height="16" viewBox="0 0 17 16" fill="none" xmlns="http://www.w3.org/2000/svg">
<path d="M5.3335 4.66683H11.6668V3.3335C11.6668 2.00016 11.1668 1.3335 9.66683 1.3335H7.3335C5.8335 1.3335 5.3335 2.00016 5.3335 3.3335V4.66683Z" stroke="#1A1C1E" stroke-width="1.5" stroke-miterlimit="10" stroke-linecap="round" stroke-linejoin="round"/>
<path d="M11.1668 10V12.6667C11.1668 14 10.5002 14.6667 9.16683 14.6667H7.8335C6.50016 14.6667 5.8335 14 5.8335 12.6667V10H11.1668Z" stroke="#1A1C1E" stroke-width="1.5" stroke-miterlimit="10" stroke-linecap="round" stroke-linejoin="round"/>
<path d="M14.5 6.6665V9.99984C14.5 11.3332 13.8333 11.9998 12.5 11.9998H11.1667V9.99984H5.83333V11.9998H4.5C3.16667 11.9998 2.5 11.3332 2.5 9.99984V6.6665C2.5 5.33317 3.16667 4.6665 4.5 4.6665H12.5C13.8333 4.6665 14.5 5.33317 14.5 6.6665Z" stroke="#1A1C1E" stroke-width="1.5" stroke-miterlimit="10" stroke-linecap="round" stroke-linejoin="round"/>
<path d="M11.8332 10H11.0265H5.1665" stroke="#292D32" stroke-width="1.5" stroke-miterlimit="10" stroke-linecap="round" stroke-linejoin="round"/>
<path d="M5.1665 7.3335H7.1665" stroke="#292D32" stroke-width="1.5" stroke-miterlimit="10" stroke-linecap="round" stroke-linejoin="round"/>
</svg>
