<svg width="40" height="43" viewBox="0 0 40 43" fill="none" xmlns="http://www.w3.org/2000/svg">
<rect y="0.5" width="40" height="42" rx="7" fill="#DBECFD"/>
<path d="M24 11.5H16C12.5 11.5 11 13.5 11 16.5V26.5C11 29.5 12.5 31.5 16 31.5H24C27.5 31.5 29 29.5 29 26.5V16.5C29 13.5 27.5 11.5 24 11.5ZM16 21.75H20C20.41 21.75 20.75 22.09 20.75 22.5C20.75 22.91 20.41 23.25 20 23.25H16C15.59 23.25 15.25 22.91 15.25 22.5C15.25 22.09 15.59 21.75 16 21.75ZM24 27.25H16C15.59 27.25 15.25 26.91 15.25 26.5C15.25 26.09 15.59 25.75 16 25.75H24C24.41 25.75 24.75 26.09 24.75 26.5C24.75 26.91 24.41 27.25 24 27.25ZM26.5 18.75H24.5C22.98 18.75 21.75 17.52 21.75 16V14C21.75 13.59 22.09 13.25 22.5 13.25C22.91 13.25 23.25 13.59 23.25 14V16C23.25 16.69 23.81 17.25 24.5 17.25H26.5C26.91 17.25 27.25 17.59 27.25 18C27.25 18.41 26.91 18.75 26.5 18.75Z" fill="#4D81E7"/>
</svg>
