<svg width="16" height="17" viewBox="0 0 16 17" fill="none" xmlns="http://www.w3.org/2000/svg">
<path d="M14 4.48665C11.78 4.26665 9.54667 4.15332 7.32 4.15332C6 4.15332 4.68 4.21999 3.36 4.35332L2 4.48665" stroke="#C65468" stroke-width="1.5" stroke-linecap="round" stroke-linejoin="round"/>
<path d="M5.66663 3.8135L5.81329 2.94016C5.91996 2.30683 5.99996 1.8335 7.12663 1.8335H8.87329C9.99996 1.8335 10.0866 2.3335 10.1866 2.94683L10.3333 3.8135" stroke="#C65468" stroke-width="1.5" stroke-linecap="round" stroke-linejoin="round"/>
<path d="M12.5667 6.59326L12.1334 13.3066C12.06 14.3533 12 15.1666 10.14 15.1666H5.86002C4.00002 15.1666 3.94002 14.3533 3.86668 13.3066L3.43335 6.59326" stroke="#C65468" stroke-width="1.5" stroke-linecap="round" stroke-linejoin="round"/>
<path d="M6.88672 11.5H9.10672" stroke="#C65468" stroke-width="1.5" stroke-linecap="round" stroke-linejoin="round"/>
<path d="M6.33337 8.8335H9.66671" stroke="#C65468" stroke-width="1.5" stroke-linecap="round" stroke-linejoin="round"/>
</svg>
