<svg width="21" height="21" viewBox="0 0 21 21" fill="none" xmlns="http://www.w3.org/2000/svg">
<path d="M2.16663 8.62484C1.82496 8.62484 1.54163 8.3415 1.54163 7.99984V5.9165C1.54163 3.49984 3.50829 1.5415 5.91663 1.5415H7.99996C8.34163 1.5415 8.62496 1.82484 8.62496 2.1665C8.62496 2.50817 8.34163 2.7915 7.99996 2.7915H5.91663C4.19163 2.7915 2.79163 4.1915 2.79163 5.9165V7.99984C2.79163 8.3415 2.50829 8.62484 2.16663 8.62484Z" fill="#1A1C1E"/>
<path d="M18.8333 8.62484C18.4917 8.62484 18.2083 8.3415 18.2083 7.99984V5.9165C18.2083 4.1915 16.8083 2.7915 15.0833 2.7915H13C12.6583 2.7915 12.375 2.50817 12.375 2.1665C12.375 1.82484 12.6583 1.5415 13 1.5415H15.0833C17.4917 1.5415 19.4583 3.49984 19.4583 5.9165V7.99984C19.4583 8.3415 19.175 8.62484 18.8333 8.62484Z" fill="#1A1C1E"/>
<path d="M15.0834 19.4585H13.8334C13.4917 19.4585 13.2084 19.1752 13.2084 18.8335C13.2084 18.4918 13.4917 18.2085 13.8334 18.2085H15.0834C16.8084 18.2085 18.2084 16.8085 18.2084 15.0835V13.8335C18.2084 13.4918 18.4917 13.2085 18.8334 13.2085C19.175 13.2085 19.4584 13.4918 19.4584 13.8335V15.0835C19.4584 17.5002 17.4917 19.4585 15.0834 19.4585Z" fill="#1A1C1E"/>
<path d="M7.99996 19.4583H5.91663C3.50829 19.4583 1.54163 17.5 1.54163 15.0833V13C1.54163 12.6583 1.82496 12.375 2.16663 12.375C2.50829 12.375 2.79163 12.6583 2.79163 13V15.0833C2.79163 16.8083 4.19163 18.2083 5.91663 18.2083H7.99996C8.34163 18.2083 8.62496 18.4917 8.62496 18.8333C8.62496 19.175 8.34163 19.4583 7.99996 19.4583Z" fill="#1A1C1E"/>
<path d="M8 4.875H6.33333C5.38333 4.875 4.875 5.375 4.875 6.33333V8C4.875 8.95833 5.38333 9.45833 6.33333 9.45833H8C8.95 9.45833 9.45833 8.95833 9.45833 8V6.33333C9.45833 5.375 8.95 4.875 8 4.875Z" fill="#1A1C1E"/>
<path d="M14.6666 4.875H13C12.05 4.875 11.5416 5.375 11.5416 6.33333V8C11.5416 8.95833 12.05 9.45833 13 9.45833H14.6666C15.6166 9.45833 16.125 8.95833 16.125 8V6.33333C16.125 5.375 15.6166 4.875 14.6666 4.875Z" fill="#1A1C1E"/>
<path d="M8 11.5415H6.33333C5.38333 11.5415 4.875 12.0415 4.875 12.9998V14.6665C4.875 15.6248 5.38333 16.1248 6.33333 16.1248H8C8.95 16.1248 9.45833 15.6248 9.45833 14.6665V12.9998C9.45833 12.0415 8.95 11.5415 8 11.5415Z" fill="#1A1C1E"/>
<path d="M14.6666 11.5415H13C12.05 11.5415 11.5416 12.0415 11.5416 12.9998V14.6665C11.5416 15.6248 12.05 16.1248 13 16.1248H14.6666C15.6166 16.1248 16.125 15.6248 16.125 14.6665V12.9998C16.125 12.0415 15.6166 11.5415 14.6666 11.5415Z" fill="#1A1C1E"/>
</svg>
