<svg width="18" height="19" viewBox="0 0 18 19" fill="none" xmlns="http://www.w3.org/2000/svg">
<path d="M2.25 7.33252V11.66C2.25 13.25 2.25 13.25 3.75 14.2625L7.875 16.6475C8.4975 17.0075 9.51 17.0075 10.125 16.6475L14.25 14.2625C15.75 13.25 15.75 13.25 15.75 11.6675V7.33252C15.75 5.75002 15.75 5.75002 14.25 4.73752L10.125 2.35252C9.51 1.99252 8.4975 1.99252 7.875 2.35252L3.75 4.73752C2.25 5.75002 2.25 5.75002 2.25 7.33252Z" stroke="#1A1C1E" stroke-width="1.5" stroke-linecap="round" stroke-linejoin="round"/>
<path d="M9 11.75C10.2426 11.75 11.25 10.7426 11.25 9.5C11.25 8.25736 10.2426 7.25 9 7.25C7.75736 7.25 6.75 8.25736 6.75 9.5C6.75 10.7426 7.75736 11.75 9 11.75Z" stroke="#1A1C1E" stroke-width="1.5" stroke-linecap="round" stroke-linejoin="round"/>
</svg>
