<svg width="40" height="43" viewBox="0 0 40 43" fill="none" xmlns="http://www.w3.org/2000/svg">
<rect y="0.5" width="40" height="42" rx="7" fill="#FDEFD9"/>
<path d="M27.17 16.1395C26.74 13.9695 25.13 13.0195 22.89 13.0195H14.11C11.47 13.0195 9.70999 14.3395 9.70999 17.4195V22.5695C9.70999 24.7895 10.62 26.0895 12.12 26.6495C12.34 26.7295 12.58 26.7995 12.83 26.8395C13.23 26.9295 13.66 26.9695 14.11 26.9695H22.9C25.54 26.9695 27.3 25.6495 27.3 22.5695V17.4195C27.3 16.9495 27.26 16.5295 27.17 16.1395ZM13.53 21.4995C13.53 21.9095 13.19 22.2495 12.78 22.2495C12.37 22.2495 12.03 21.9095 12.03 21.4995V18.4995C12.03 18.0895 12.37 17.7495 12.78 17.7495C13.19 17.7495 13.53 18.0895 13.53 18.4995V21.4995ZM18.5 22.6395C17.04 22.6395 15.86 21.4595 15.86 19.9995C15.86 18.5395 17.04 17.3595 18.5 17.3595C19.96 17.3595 21.14 18.5395 21.14 19.9995C21.14 21.4595 19.96 22.6395 18.5 22.6395ZM24.96 21.4995C24.96 21.9095 24.62 22.2495 24.21 22.2495C23.8 22.2495 23.46 21.9095 23.46 21.4995V18.4995C23.46 18.0895 23.8 17.7495 24.21 17.7495C24.62 17.7495 24.96 18.0895 24.96 18.4995V21.4995Z" fill="#EA7E41"/>
<path d="M30.3 20.4203V25.5703C30.3 28.6503 28.54 29.9803 25.89 29.9803H17.11C16.36 29.9803 15.69 29.8703 15.11 29.6503C14.64 29.4803 14.23 29.2303 13.9 28.9103C13.72 28.7403 13.86 28.4703 14.11 28.4703H22.89C26.59 28.4703 28.79 26.2703 28.79 22.5803V17.4203C28.79 17.1803 29.06 17.0303 29.23 17.2103C29.91 17.9303 30.3 18.9803 30.3 20.4203Z" fill="#EA7E41"/>
</svg>
