<svg width="41" height="43" viewBox="0 0 41 43" fill="none" xmlns="http://www.w3.org/2000/svg">
<rect x="0.333374" y="0.5" width="40" height="42" rx="7" fill="#CEFBE7"/>
<path d="M27.0234 21.0298C26.4534 20.8798 25.7834 20.7998 24.9834 20.7998C23.8734 20.7998 23.4634 21.0698 22.8934 21.4998C22.8634 21.5198 22.8334 21.5498 22.8034 21.5798L21.8534 22.5898C21.0634 23.4398 19.6134 23.4398 18.8134 22.5898L17.8634 21.5898C17.8334 21.5498 17.8034 21.5198 17.7734 21.4998C17.1934 21.0698 16.7834 20.7998 15.6834 20.7998C14.8834 20.7998 14.2134 20.8698 13.6434 21.0298C11.2634 21.6698 11.2634 23.5598 11.2634 25.2198V26.1498C11.2634 28.6598 11.2634 31.4998 16.6134 31.4998H24.0534C27.6034 31.4998 29.4034 29.6998 29.4034 26.1498V25.2198C29.4034 23.5598 29.4034 21.6698 27.0234 21.0298Z" fill="#12B3A8"/>
<path d="M23.1234 11.5H17.5434C13.1234 11.5 13.1234 13.85 13.1234 15.92V19.62C13.1634 19.6 13.2134 19.59 13.2534 19.58C13.9534 19.39 14.7434 19.3 15.6834 19.3C17.2234 19.3 17.9534 19.75 18.6734 20.3C18.7734 20.37 18.8734 20.46 18.9634 20.56L19.9034 21.55C20.0034 21.66 20.1634 21.72 20.3334 21.72C20.5034 21.72 20.6634 21.66 20.7534 21.56L21.7134 20.55C21.7934 20.47 21.8834 20.38 21.9834 20.31C22.7234 19.75 23.4434 19.3 24.9834 19.3C25.9234 19.3 26.7134 19.39 27.4134 19.58C27.4534 19.59 27.5034 19.6 27.5434 19.62V15.92C27.5434 13.85 27.5434 11.5 23.1234 11.5ZM21.8834 18H18.7834C18.4034 18 18.0834 17.68 18.0834 17.3C18.0834 16.91 18.4034 16.6 18.7834 16.6H21.8834C22.2634 16.6 22.5834 16.91 22.5834 17.3C22.5834 17.68 22.2634 18 21.8834 18ZM22.6634 15.21H18.0034C17.6234 15.21 17.3134 14.89 17.3134 14.51C17.3134 14.12 17.6234 13.81 18.0034 13.81H22.6634C23.0434 13.81 23.3534 14.12 23.3534 14.51C23.3534 14.89 23.0434 15.21 22.6634 15.21Z" fill="#12B3A8"/>
</svg>
