<svg width="40" height="43" viewBox="0 0 40 43" fill="none" xmlns="http://www.w3.org/2000/svg">
<rect y="0.5" width="40" height="42" rx="7" fill="#CEFBE7"/>
<path d="M25 13.5H15C12 13.5 10 15 10 18.5V22.06C10 22.43 10.38 22.66 10.71 22.51C11.69 22.06 12.82 21.89 14.01 22.1C16.64 22.57 18.57 25.01 18.5 27.68C18.49 28.1 18.43 28.51 18.32 28.91C18.24 29.22 18.49 29.51 18.81 29.51H25C28 29.51 30 28.01 30 24.51V18.5C30 15 28 13.5 25 13.5ZM20 24C18.62 24 17.5 22.88 17.5 21.5C17.5 20.12 18.62 19 20 19C21.38 19 22.5 20.12 22.5 21.5C22.5 22.88 21.38 24 20 24ZM27.25 23.5C27.25 23.91 26.91 24.25 26.5 24.25C26.09 24.25 25.75 23.91 25.75 23.5V19.5C25.75 19.09 26.09 18.75 26.5 18.75C26.91 18.75 27.25 19.09 27.25 19.5V23.5Z" fill="#12B3A8"/>
<path d="M13 23.5C10.79 23.5 9 25.29 9 27.5C9 28.25 9.21 28.96 9.58 29.56C10.27 30.72 11.54 31.5 13 31.5C14.46 31.5 15.73 30.72 16.42 29.56C16.79 28.96 17 28.25 17 27.5C17 25.29 15.21 23.5 13 23.5ZM14.97 27.17L12.84 29.14C12.7 29.27 12.51 29.34 12.33 29.34C12.14 29.34 11.95 29.27 11.8 29.12L10.81 28.13C10.52 27.84 10.52 27.36 10.81 27.07C11.1 26.78 11.58 26.78 11.87 27.07L12.35 27.55L13.95 26.07C14.25 25.79 14.73 25.81 15.01 26.11C15.29 26.41 15.27 26.89 14.97 27.17Z" fill="#12B3A8"/>
</svg>
