<svg width="42" height="45" viewBox="0 0 42 45" fill="none" xmlns="http://www.w3.org/2000/svg">
<rect y="0.5" width="42" height="44" rx="7" fill="#FCE4DF"/>
<path d="M30.75 20.0621H29.8999C29.6958 17.8429 28.6698 15.7799 27.0234 14.278C25.3769 12.776 23.2286 11.9434 21 11.9434C18.7714 11.9434 16.6231 12.776 14.9766 14.278C13.3302 15.7799 12.3042 17.8429 12.1001 20.0621H11.25C11.0345 20.0621 10.8278 20.1477 10.6755 20.3001C10.5231 20.4525 10.4375 20.6592 10.4375 20.8746C10.4411 22.8069 10.9728 24.7014 11.9753 26.3533C12.9777 28.0051 14.4127 29.3515 16.125 30.2468V30.6246C16.125 31.0556 16.2962 31.4689 16.601 31.7737C16.9057 32.0784 17.319 32.2496 17.75 32.2496H24.25C24.681 32.2496 25.0943 32.0784 25.399 31.7737C25.7038 31.4689 25.875 31.0556 25.875 30.6246V30.2468C27.5873 29.3515 29.0223 28.0051 30.0247 26.3533C31.0272 24.7014 31.5589 22.8069 31.5625 20.8746C31.5625 20.6592 31.4769 20.4525 31.3245 20.3001C31.1722 20.1477 30.9655 20.0621 30.75 20.0621ZM25.6191 15.2105C25.8053 15.3628 25.9837 15.5237 26.1543 15.6929C23.9914 16.4538 22.204 18.0175 21.1625 20.0601H18.1664C18.6742 18.6366 19.6091 17.4047 20.8434 16.5325C22.0777 15.6603 23.5512 15.1905 25.0625 15.1871C25.2484 15.1871 25.4342 15.1963 25.6191 15.2105ZM23.0434 20.0621C24.0285 18.5843 25.5188 17.5165 27.2349 17.0589C27.796 17.9716 28.1481 18.9973 28.2658 20.0621H23.0434ZM21 13.5621C21.652 13.5626 22.301 13.6504 22.9297 13.8232C21.3986 14.203 19.9946 14.9797 18.8593 16.075C17.7241 17.1704 16.8976 18.5456 16.4632 20.0621H13.7342C13.9358 18.2755 14.7877 16.6255 16.1277 15.4268C17.4678 14.228 19.202 13.5643 21 13.5621Z" fill="#C65468"/>
</svg>
