<svg width="40" height="43" viewBox="0 0 40 43" fill="none" xmlns="http://www.w3.org/2000/svg">
<rect y="0.5" width="40" height="42" rx="7" fill="#DBECFD"/>
<path d="M25.53 17.27C25.46 17.26 25.39 17.26 25.32 17.27C23.77 17.22 22.54 15.95 22.54 14.39C22.54 12.8 23.83 11.5 25.43 11.5C27.02 11.5 28.32 12.79 28.32 14.39C28.31 15.95 27.08 17.22 25.53 17.27Z" fill="#4D81E7"/>
<path d="M28.79 24.2004C27.67 24.9504 26.1 25.2304 24.65 25.0404C25.03 24.2204 25.23 23.3104 25.24 22.3504C25.24 21.3504 25.02 20.4004 24.6 19.5704C26.08 19.3704 27.65 19.6504 28.78 20.4004C30.36 21.4404 30.36 23.1504 28.79 24.2004Z" fill="#4D81E7"/>
<path d="M14.44 17.27C14.51 17.26 14.58 17.26 14.65 17.27C16.2 17.22 17.43 15.95 17.43 14.39C17.43 12.79 16.14 11.5 14.54 11.5C12.95 11.5 11.66 12.79 11.66 14.39C11.66 15.95 12.89 17.22 14.44 17.27Z" fill="#4D81E7"/>
<path d="M14.55 22.3496C14.55 23.3196 14.76 24.2396 15.14 25.0696C13.73 25.2196 12.26 24.9196 11.18 24.2096C9.6 23.1596 9.6 21.4496 11.18 20.3996C12.25 19.6796 13.76 19.3896 15.18 19.5496C14.77 20.3896 14.55 21.3396 14.55 22.3496Z" fill="#4D81E7"/>
<path d="M20.12 25.37C20.04 25.36 19.95 25.36 19.86 25.37C18.02 25.31 16.55 23.8 16.55 21.94C16.56 20.04 18.09 18.5 20 18.5C21.9 18.5 23.44 20.04 23.44 21.94C23.43 23.8 21.97 25.31 20.12 25.37Z" fill="#4D81E7"/>
<path d="M16.87 27.4396C15.36 28.4496 15.36 30.1096 16.87 31.1096C18.59 32.2596 21.41 32.2596 23.13 31.1096C24.64 30.0996 24.64 28.4396 23.13 27.4396C21.42 26.2896 18.6 26.2896 16.87 27.4396Z" fill="#4D81E7"/>
</svg>
