<svg width="41" height="43" viewBox="0 0 41 43" fill="none" xmlns="http://www.w3.org/2000/svg">
<rect x="0.666656" y="0.5" width="40" height="42" rx="7" fill="#FDEFD9"/>
<path d="M28.8767 17.3204L21.1767 21.7804C20.8667 21.9604 20.4767 21.9604 20.1567 21.7804L12.4567 17.3204C11.9067 17.0004 11.7667 16.2504 12.1867 15.7804C12.4767 15.4504 12.8067 15.1804 13.1567 14.9904L18.5767 11.9904C19.7367 11.3404 21.6167 11.3404 22.7767 11.9904L28.1967 14.9904C28.5467 15.1804 28.8767 15.4604 29.1667 15.7804C29.5667 16.2504 29.4267 17.0004 28.8767 17.3204Z" fill="#EA7E41"/>
<path d="M20.0967 23.6399V30.4599C20.0967 31.2199 19.3267 31.7199 18.6467 31.3899C16.5867 30.3799 13.1167 28.4899 13.1167 28.4899C11.8967 27.7999 10.8967 26.0599 10.8967 24.6299V19.4699C10.8967 18.6799 11.7267 18.1799 12.4067 18.5699L19.5967 22.7399C19.8967 22.9299 20.0967 23.2699 20.0967 23.6399Z" fill="#EA7E41"/>
<path d="M21.2367 23.6399V30.4599C21.2367 31.2199 22.0067 31.7199 22.6867 31.3899C24.7467 30.3799 28.2167 28.4899 28.2167 28.4899C29.4367 27.7999 30.4367 26.0599 30.4367 24.6299V19.4699C30.4367 18.6799 29.6067 18.1799 28.9267 18.5699L21.7367 22.7399C21.4367 22.9299 21.2367 23.2699 21.2367 23.6399Z" fill="#EA7E41"/>
</svg>
