<svg width="12" height="12" viewBox="0 0 12 12" fill="none" xmlns="http://www.w3.org/2000/svg">
<path d="M7.78996 5.99996C7.78996 6.98996 6.98996 7.78996 5.99996 7.78996C5.00996 7.78996 4.20996 6.98996 4.20996 5.99996C4.20996 5.00996 5.00996 4.20996 5.99996 4.20996C6.98996 4.20996 7.78996 5.00996 7.78996 5.99996Z" stroke="white" stroke-width="1.2" stroke-linecap="round" stroke-linejoin="round"/>
<path d="M6.00004 10.1354C7.76504 10.1354 9.41004 9.09535 10.555 7.29535C11.005 6.59035 11.005 5.40535 10.555 4.70035C9.41004 2.90035 7.76504 1.86035 6.00004 1.86035C4.23504 1.86035 2.59004 2.90035 1.44504 4.70035C0.995044 5.40535 0.995044 6.59035 1.44504 7.29535C2.59004 9.09535 4.23504 10.1354 6.00004 10.1354Z" stroke="white" stroke-width="1.2" stroke-linecap="round" stroke-linejoin="round"/>
</svg>
