<svg width="16" height="17" viewBox="0 0 16 17" fill="none" xmlns="http://www.w3.org/2000/svg">
<path d="M9.68661 6.64824L6.31328 10.0216C5.87995 9.58824 5.61328 8.99491 5.61328 8.33491C5.61328 7.01491 6.67995 5.94824 7.99995 5.94824C8.65995 5.94824 9.25328 6.21491 9.68661 6.64824Z" stroke="#1A1C1E" stroke-width="1.5" stroke-linecap="round" stroke-linejoin="round"/>
<path d="M11.8799 4.18153C10.7132 3.30153 9.3799 2.82153 7.9999 2.82153C5.64656 2.82153 3.45323 4.2082 1.92656 6.6082C1.32656 7.5482 1.32656 9.1282 1.92656 10.0682C2.45323 10.8949 3.06656 11.6082 3.73323 12.1815" stroke="#1A1C1E" stroke-width="1.5" stroke-linecap="round" stroke-linejoin="round"/>
<path d="M5.61328 13.3549C6.37328 13.6749 7.17995 13.8482 7.99995 13.8482C10.3533 13.8482 12.5466 12.4616 14.0733 10.0616C14.6733 9.12158 14.6733 7.54158 14.0733 6.60158C13.8533 6.25492 13.6133 5.92825 13.3666 5.62158" stroke="#1A1C1E" stroke-width="1.5" stroke-linecap="round" stroke-linejoin="round"/>
<path d="M10.34 8.80151C10.1666 9.74151 9.39996 10.5082 8.45996 10.6815" stroke="#1A1C1E" stroke-width="1.5" stroke-linecap="round" stroke-linejoin="round"/>
<path d="M6.3135 10.0217L1.3335 15.0017" stroke="#1A1C1E" stroke-width="1.5" stroke-linecap="round" stroke-linejoin="round"/>
<path d="M14.6665 1.66821L9.68652 6.64821" stroke="#1A1C1E" stroke-width="1.5" stroke-linecap="round" stroke-linejoin="round"/>
</svg>
