<svg width="16" height="17" viewBox="0 0 16 17" fill="none" xmlns="http://www.w3.org/2000/svg">
<path d="M10.3866 8.33491C10.3866 9.65491 9.31995 10.7216 7.99995 10.7216C6.67995 10.7216 5.61328 9.65491 5.61328 8.33491C5.61328 7.01491 6.67995 5.94824 7.99995 5.94824C9.31995 5.94824 10.3866 7.01491 10.3866 8.33491Z" stroke="#1A1C1E" stroke-width="1.5" stroke-linecap="round" stroke-linejoin="round"/>
<path d="M7.9999 13.8483C10.3532 13.8483 12.5466 12.4616 14.0732 10.0616C14.6732 9.12161 14.6732 7.54161 14.0732 6.60161C12.5466 4.20161 10.3532 2.81494 7.9999 2.81494C5.64656 2.81494 3.45323 4.20161 1.92656 6.60161C1.32656 7.54161 1.32656 9.12161 1.92656 10.0616C3.45323 12.4616 5.64656 13.8483 7.9999 13.8483Z" stroke="#1A1C1E" stroke-width="1.5" stroke-linecap="round" stroke-linejoin="round"/>
</svg>
